<svg id="Iconly_Light_Notification" data-name="Iconly/Light/Notification" xmlns="http://www.w3.org/2000/svg" width="18" height="18" viewBox="0 0 18 18">
  <g id="Notification" transform="translate(2.625 1.5)">
    <path id="Path_425" d="M0,8.84V8.676A2.7,2.7,0,0,1,.452,7.312a3.653,3.653,0,0,0,.9-1.735c0-.5,0-1.007.044-1.507C1.616,1.664,4,0,6.346,0H6.4c2.35,0,4.73,1.664,4.963,4.07.044.5,0,1.007.036,1.507a3.716,3.716,0,0,0,.9,1.742,2.63,2.63,0,0,1,.451,1.357v.157a2.675,2.675,0,0,1-.633,1.792,3.379,3.379,0,0,1-2.139,1.028,33.808,33.808,0,0,1-7.211,0A3.416,3.416,0,0,1,.626,10.626,2.7,2.7,0,0,1,0,8.84Z" stroke="#3d4596" stroke-linecap="round" stroke-linejoin="round" stroke-miterlimit="10" stroke-width="1"/>
    <path id="Path_421" d="M0,0A2.3,2.3,0,0,0,1.528.845,2.316,2.316,0,0,0,3.216.378,2.164,2.164,0,0,0,3.609,0" transform="translate(4.541 14.139)" stroke="#3d4596" stroke-linecap="round" stroke-linejoin="round" stroke-miterlimit="10" stroke-width="1"/>
  </g>
</svg>
