<svg id="Iconly_Light_Profile" data-name="Iconly/Light/Profile" xmlns="http://www.w3.org/2000/svg" width="18" height="18" viewBox="0 0 18 18">
  <g id="Profile" transform="translate(3 1.875)">
    <circle id="Ellipse_736" cx="3.584" cy="3.584" r="3.584" transform="translate(2.101)" fill="none" stroke="#3d4596" stroke-linecap="round" stroke-linejoin="round" stroke-miterlimit="10" stroke-width="1"/>
    <path id="Path_33945" d="M0,2.262a1.661,1.661,0,0,1,.165-.728A3.032,3.032,0,0,1,2.279.319,12.59,12.59,0,0,1,4.037.072a18.789,18.789,0,0,1,3.288,0A12.735,12.735,0,0,1,9.082.319,2.917,2.917,0,0,1,11.2,1.534,1.7,1.7,0,0,1,11.2,3,2.888,2.888,0,0,1,9.082,4.2a11.787,11.787,0,0,1-1.757.254A19.366,19.366,0,0,1,4.648,4.5a3.049,3.049,0,0,1-.611-.041A11.568,11.568,0,0,1,2.286,4.2,2.9,2.9,0,0,1,.165,3,1.709,1.709,0,0,1,0,2.262Z" transform="translate(0 9.889)" fill="none" stroke="#3d4596" stroke-linecap="round" stroke-linejoin="round" stroke-miterlimit="10" stroke-width="1"/>
  </g>
</svg>
