<svg xmlns="http://www.w3.org/2000/svg" width="26.851" height="21.257" viewBox="0 0 26.851 21.257">
  <g id="Group_805" data-name="Group 805" transform="translate(-20 9.535)">
    <path id="Path_1045" data-name="Path 1045" d="M42.935-6.179H39.579a.558.558,0,0,1-.53-.383l-.353-1.061a2.794,2.794,0,0,0-2.654-1.913H30.81a2.791,2.791,0,0,0-2.653,1.912L27.8-6.561a.561.561,0,0,1-.532.383H23.916A3.92,3.92,0,0,0,20-2.263V7.806a3.92,3.92,0,0,0,3.916,3.916H42.935a3.92,3.92,0,0,0,3.916-3.916V-2.263a3.92,3.92,0,0,0-3.916-3.916Zm2.8,13.985a2.8,2.8,0,0,1-2.8,2.8H23.916a2.8,2.8,0,0,1-2.8-2.8V-2.263a2.8,2.8,0,0,1,2.8-2.8h3.356a1.677,1.677,0,0,0,1.592-1.147l.355-1.063A1.675,1.675,0,0,1,30.81-8.416h5.231a1.676,1.676,0,0,1,1.592,1.148l.353,1.062A1.678,1.678,0,0,0,39.579-5.06h3.356a2.8,2.8,0,0,1,2.8,2.8Zm0,0" transform="translate(0)"/>
    <path id="Path_1046" data-name="Path 1046" d="M122.713,70.465a6.713,6.713,0,1,0,6.713,6.713,6.719,6.719,0,0,0-6.713-6.713Zm0,12.307a5.594,5.594,0,1,1,5.594-5.594,5.6,5.6,0,0,1-5.594,5.594Zm0,0" transform="translate(-89.287 -74.406)"/>
    <path id="Path_1047" data-name="Path 1047" d="M152.475,102.465A4.48,4.48,0,0,0,148,106.94a.559.559,0,0,0,1.119,0,3.36,3.36,0,0,1,3.356-3.356.559.559,0,0,0,0-1.119Zm0,0" transform="translate(-119.05 -104.168)"/>
  </g>
</svg>
