<svg xmlns="http://www.w3.org/2000/svg" width="14.1" height="13.178" viewBox="0 0 14.1 13.178">
  <path id="Path_1051" data-name="Path 1051" d="M141.778,469.906a23.113,23.113,0,0,0-5.746-5.631l-.29-.182.209-.27a1.162,1.162,0,0,1,.753-.441,1.532,1.532,0,0,1,.2-.02c1.415-.052,3.617,1.659,4.5,2.395a59.267,59.267,0,0,1,4.956-6.854,4.888,4.888,0,0,1,2.467-1.655,1.518,1.518,0,0,1,.2-.02.883.883,0,0,1,.385.058l.434.2-.357.314c-4.551,4-7.136,11.942-7.162,12.022l-.188.584Z" transform="translate(-135.742 -457.227)" fill="#fff"/>
</svg>
