<svg xmlns="http://www.w3.org/2000/svg" width="150.082" height="136.945" viewBox="0 0 150.082 136.945">
  <g id="Group_1376" data-name="Group 1376" transform="translate(-112.692 -210.055)">
    <g id="Group_1371" data-name="Group 1371" transform="translate(139.335 251.617)">
      <g id="Group_1370" data-name="Group 1370" transform="translate(0 0)">
        <path id="Path_1535" data-name="Path 1535" d="M164.007,180.025c0-4.129,5.6-8.937,4.586-12.745-1.053-3.94-8.34-5.3-10.336-8.747-2.024-3.5.421-10.483-2.419-13.322s-9.824-.394-13.322-2.418c-3.449-2-4.808-9.283-8.747-10.336-3.808-1.018-8.617,4.586-12.745,4.586s-8.937-5.6-12.745-4.586c-3.94,1.053-5.3,8.34-8.747,10.336-3.5,2.024-10.483-.421-13.322,2.419s-.394,9.824-2.418,13.322c-2,3.449-9.283,4.808-10.336,8.747-1.018,3.808,4.586,8.617,4.586,12.745s-5.6,8.937-4.586,12.745c1.053,3.94,8.34,5.3,10.336,8.747,2.024,3.5-.421,10.483,2.419,13.322s9.824.394,13.322,2.418c3.449,2,4.808,9.283,8.747,10.336,3.808,1.018,8.616-4.586,12.745-4.586s8.937,5.6,12.745,4.586c3.94-1.053,5.3-8.34,8.747-10.336,3.5-2.024,10.483.421,13.322-2.419s.394-9.824,2.418-13.322c2-3.449,9.283-4.808,10.336-8.747C169.611,188.962,164.007,184.153,164.007,180.025Z" transform="translate(-73.333 -132.333)" fill="#3bf2a3"/>
      </g>
      <path id="Path_1051" data-name="Path 1051" d="M155.624,498.993A76.135,76.135,0,0,0,136.7,480.445l-.954-.6.69-.888a3.83,3.83,0,0,1,2.479-1.454,5.083,5.083,0,0,1,.667-.067c4.66-.171,11.913,5.466,14.807,7.889,2.526-3.951,11.062-17.092,16.327-22.579,3.861-4.02,6.55-5.184,8.126-5.451a4.994,4.994,0,0,1,.652-.067,2.909,2.909,0,0,1,1.268.19l1.429.656-1.176,1.035c-14.992,13.188-23.507,39.339-23.591,39.6l-.618,1.925Z" transform="translate(-111.206 -431.24)" fill="#fff"/>
    </g>
    <g id="Group_1372" data-name="Group 1372" transform="translate(111.52 305.506) rotate(-88)">
      <path id="Path_1536" data-name="Path 1536" d="M.137,3.532c3.114-.46,18.708-2.347,18.708-2.347C21.965.837,25.082.414,28.214.252s6.267-.323,9.417-.217a1.2,1.2,0,0,1,.157,2.392c-3.11.516-6.237.767-9.364,1.014s-6.272.234-9.411.3c0,0-15.708.164-18.854.114a.16.16,0,0,1-.022-.318Z" transform="translate(58.376 69.256)" fill="#3d4596"/>
      <path id="Path_1537" data-name="Path 1537" d="M.23.016c2.393,1.166,4.749,2.389,7.115,3.6s4.7,2.472,7.031,3.737,4.7,2.467,6.948,3.872,4.467,2.855,6.573,4.487a1.206,1.206,0,0,1-1.25,2.045,79.469,79.469,0,0,1-6.99-3.806c-2.274-1.358-4.426-2.919-6.614-4.418s-4.377-3-6.531-4.554S2.191,1.888.064.289A.16.16,0,0,1,.23.016Z" transform="translate(54.551 103.844)" fill="#3d4596"/>
      <path id="Path_1538" data-name="Path 1538" d="M.078,7.692C1.841,6.923,3.623,6.22,5.4,5.483L10.752,3.4c1.79-.683,3.56-1.424,5.395-1.965A51.155,51.155,0,0,1,21.714.015a.967.967,0,0,1,.575,1.829,51.063,51.063,0,0,1-5.376,2.026c-1.814.606-3.691,1.012-5.548,1.477L5.779,6.7C3.9,7.111,2.039,7.556.154,7.935a.128.128,0,0,1-.077-.243Z" transform="translate(74.31 47.283)" fill="#3d4596"/>
      <path id="Path_1539" data-name="Path 1539" d="M.159,0c1.4.325,2.784.7,4.174,1.071s2.759.777,4.129,1.19,2.759.773,4.082,1.309A28.47,28.47,0,0,1,16.417,5.42a.971.971,0,0,1-.693,1.787,28.475,28.475,0,0,1-4.106-1.249c-1.337-.5-2.607-1.167-3.9-1.787s-2.58-1.24-3.85-1.9S1.322.948.066.241A.128.128,0,0,1,.017.066.129.129,0,0,1,.159,0Z" transform="translate(59.584 89.049)" fill="#3d4596"/>
      <path id="Path_1547" data-name="Path 1547" d="M.159,0c1.4.325,2.784.7,4.174,1.071s2.759.777,4.129,1.19,2.759.773,4.082,1.309A28.47,28.47,0,0,1,16.417,5.42a.971.971,0,0,1-.693,1.787,28.475,28.475,0,0,1-4.106-1.249c-1.337-.5-2.607-1.167-3.9-1.787s-2.58-1.24-3.85-1.9S1.322.948.066.241A.128.128,0,0,1,.017.066.129.129,0,0,1,.159,0Z" transform="matrix(0.799, 0.602, -0.602, 0.799, 42.74, 120.262)" fill="#3d4596"/>
      <path id="Path_1548" data-name="Path 1548" d="M17.732,9.574c-1.487-.43-2.95-.934-4.423-1.42s-2.923-1.03-4.375-1.577A42.827,42.827,0,0,1,4.61,4.842,28,28,0,0,1,.505,2.4,1.482,1.482,0,0,1,.144.63a.965.965,0,0,1,1.1-.6A25.882,25.882,0,0,1,5.59,1.682,45.488,45.488,0,0,1,9.719,4.051c1.367.82,2.733,1.643,4.08,2.524s2.7,1.747,4.032,2.684a.194.194,0,0,1,.051.232A.128.128,0,0,1,17.732,9.574Z" transform="translate(41.889 4.789) rotate(120)" fill="#3d4596"/>
      <path id="Path_1540" data-name="Path 1540" d="M.052,20.187c1.961-1.8,3.963-3.546,5.957-5.307s4.023-3.471,6.053-5.18,4.019-3.475,6.15-5.052A79.484,79.484,0,0,1,24.8.17a1.206,1.206,0,0,1,1.446,1.911A79.17,79.17,0,0,1,20.14,7.2c-2.1,1.621-4.338,3.054-6.535,4.542s-4.4,2.977-6.632,4.416-4.46,2.89-6.728,4.288a.161.161,0,0,1-.193-.256Z" transform="translate(61.437 24.145)" fill="#3d4596"/>
      <path id="Path_1541" data-name="Path 1541" d="M10.517,19.554,7.03,13.42,0,12.815,4.756,7.6,3.159.73,9.586,3.643,15.628,0l-.784,7.012,5.332,4.621-6.911,1.421Z" transform="translate(42.36 15.367)" fill="#3d4596"/>
      <path id="Path_1542" data-name="Path 1542" d="M4.315,0,6.164,2.79l3.347.058L7.428,5.469l.978,3.2L5.271,7.5,2.529,9.42l.144-3.344L0,4.061l3.225-.9Z" transform="translate(25.382 122.895)" fill="#3d4596"/>
      <path id="Path_1543" data-name="Path 1543" d="M5.367,0,9.213,3.735l5.257-1.05L12.106,7.5l2.624,4.676-5.307-.762-3.636,3.94-.916-5.283L0,7.828l4.741-2.5Z" transform="translate(79.592 78.998)" fill="#3d4596"/>
      <path id="Path_1544" data-name="Path 1544" d="M4.315,0,6.164,2.79l3.347.059L7.428,5.469l.979,3.2L5.271,7.5,2.529,9.42l.144-3.344L0,4.061l3.225-.9Z" transform="translate(0 8.484)" fill="#3d4596"/>
      <path id="Path_1545" data-name="Path 1545" d="M4.315,0,6.164,2.79l3.347.058L7.428,5.469l.979,3.2L5.271,7.5,2.529,9.42l.144-3.344L0,4.061l3.225-.9Z" transform="translate(67.414 139.241)" fill="#3d4596"/>
      <path id="Path_1546" data-name="Path 1546" d="M4.315,0,6.164,2.79l3.347.058L7.428,5.469l.979,3.2L5.271,7.5,2.529,9.42l.144-3.344L0,4.061l3.225-.9Z" transform="translate(59.444 52.665)" fill="#3d4596"/>
    </g>
  </g>
</svg>
