<svg xmlns="http://www.w3.org/2000/svg" width="8.467" height="8.467" viewBox="0 0 8.467 8.467">
  <g id="Group_25" data-name="Group 25" transform="translate(-1.754 4.233) rotate(-45)">
    <path id="Path_80" data-name="Path 80" d="M-4.289-78.057h-2.57a.151.151,0,0,1-.151-.151v-2.57a.756.756,0,0,0-.756-.756.756.756,0,0,0-.756.756v2.57a.151.151,0,0,1-.151.151h-2.57A.756.756,0,0,0-12-77.3a.756.756,0,0,0,.756.756h2.57a.151.151,0,0,1,.151.151v2.57a.756.756,0,0,0,.756.756.756.756,0,0,0,.756-.756v-2.57a.151.151,0,0,1,.151-.151h2.57a.756.756,0,0,0,.756-.756.756.756,0,0,0-.756-.756Zm0,0" transform="translate(64.386 53.402) rotate(-45)" fill="#3d4596"/>
  </g>
</svg>
