<svg xmlns="http://www.w3.org/2000/svg" width="11.478" height="11" viewBox="0 0 11.478 11">
  <g id="Group_1081" data-name="Group 1081" transform="translate(43 102.535)">
    <g id="Group_915" data-name="Group 915" transform="translate(-43 -102.535)">
      <path id="Path_1239" data-name="Path 1239" d="M-40.431-91.535a.608.608,0,0,1-.357-.116.61.61,0,0,1-.237-.63l.738-3.253-2.5-2.2a.61.61,0,0,1-.179-.648.61.61,0,0,1,.525-.419l3.314-.3,1.31-3.066a.61.61,0,0,1,.561-.371.61.61,0,0,1,.561.37l1.31,3.066,3.313.3a.609.609,0,0,1,.525.419.61.61,0,0,1-.178.648l-2.5,2.2.738,3.253a.61.61,0,0,1-.237.63.609.609,0,0,1-.671.029l-2.857-1.708-2.857,1.708a.612.612,0,0,1-.313.087Zm3.17-2.531a.612.612,0,0,1,.313.087l2.7,1.613-.7-3.07a.61.61,0,0,1,.193-.594l2.365-2.074-3.128-.284a.609.609,0,0,1-.507-.37l-1.235-2.893L-38.5-98.758A.608.608,0,0,1-39-98.39l-3.129.284,2.365,2.074a.609.609,0,0,1,.193.595l-.7,3.07,2.7-1.612a.611.611,0,0,1,.313-.087Zm-1.9-4.974h0Zm3.792,0h0Zm0,0" transform="translate(43 102.535)" fill="#1b1f48"/>
    </g>
  </g>
</svg>
