<svg xmlns="http://www.w3.org/2000/svg" width="11.077" height="11.078" viewBox="0 0 11.077 11.078">
  <path id="Path_1309" data-name="Path 1309" d="M27.12,19.466c-.014-.02-.031-.037-.045-.056Q26.92,19.2,26.747,19l-.1-.106q-.178-.191-.374-.364c-.024-.021-.047-.044-.071-.064a5.547,5.547,0,0,0-1.05-.709l-.046-.023a5.506,5.506,0,0,0-.514-.229c-.04-.014-.076-.028-.113-.04q-.234-.084-.475-.148c-.047-.013-.095-.026-.143-.037-.158-.037-.317-.065-.478-.088-.049-.007-.1-.017-.147-.023a5.2,5.2,0,0,0-1.255,0c-.049.006-.1.015-.147.023-.162.023-.322.051-.478.088-.048.011-.1.024-.143.037q-.243.063-.475.148l-.113.04a5.506,5.506,0,0,0-.514.229l-.046.023a5.546,5.546,0,0,0-1.054.709c-.024.021-.047.043-.071.064a5.147,5.147,0,0,0-.374.364l-.1.106q-.174.2-.328.407c-.014.019-.031.036-.045.056l0,.011a5.5,5.5,0,0,0,0,6.394l0,.011c.014.02.031.037.045.056q.155.211.328.407l.1.106q.179.191.374.364l.071.065a5.548,5.548,0,0,0,1.05.709l.046.023a5.506,5.506,0,0,0,.514.229c.04.014.076.028.113.04q.234.084.475.148c.047.013.095.026.143.037.158.037.317.065.478.088.049.007.1.017.147.023a5.2,5.2,0,0,0,1.255,0c.049-.006.1-.015.147-.023.162-.023.322-.051.478-.088.048-.011.1-.024.143-.037q.243-.063.475-.148l.113-.04a5.506,5.506,0,0,0,.514-.229l.046-.023a5.547,5.547,0,0,0,1.05-.709l.071-.065a5.039,5.039,0,0,0,.374-.364l.1-.106q.174-.2.328-.407c.014-.019.031-.036.045-.056l0-.011a5.5,5.5,0,0,0,0-6.394A.083.083,0,0,0,27.12,19.466Zm-.45,5.656a7.11,7.11,0,0,0-1.924-.656,7.385,7.385,0,0,0,.221-1.4h2.371A4.709,4.709,0,0,1,26.67,25.122Zm-.5.687c-.093.105-.19.207-.291.3-.025.024-.051.046-.076.069q-.146.134-.3.254l-.083.062q-.161.119-.332.224L25,26.769q-.18.1-.369.194L24.564,27q-.2.089-.4.158c-.021.008-.04.016-.062.023-.137.046-.277.084-.419.119-.022.005-.044.012-.066.017-.054.012-.11.017-.165.027a10.063,10.063,0,0,0,1.065-2.114,6.638,6.638,0,0,1,1.688.542ZM21.536,27.3a4.259,4.259,0,0,1-.419-.119l-.062-.023q-.2-.071-.4-.158l-.068-.033q-.189-.09-.369-.194l-.079-.048q-.171-.1-.332-.224c-.028-.02-.055-.04-.083-.062a3.616,3.616,0,0,1-.3-.254c-.025-.023-.051-.046-.076-.069-.1-.1-.2-.2-.291-.3l-.036-.04a6.638,6.638,0,0,1,1.688-.542,10.063,10.063,0,0,0,1.065,2.114c-.055-.01-.111-.015-.165-.027ZM17.88,23.07h2.371a7.385,7.385,0,0,0,.222,1.4,7.11,7.11,0,0,0-1.924.656A4.709,4.709,0,0,1,17.88,23.07Zm.668-2.844a7.11,7.11,0,0,0,1.924.656,7.385,7.385,0,0,0-.221,1.4H17.88A4.709,4.709,0,0,1,18.548,20.225Zm.5-.687c.093-.105.19-.207.291-.3.025-.024.051-.046.076-.069q.146-.133.3-.254c.027-.021.055-.04.083-.062q.161-.119.332-.224l.079-.048q.18-.105.369-.194l.068-.033q.2-.089.4-.158c.021-.008.04-.016.062-.023.137-.046.277-.084.419-.119.022-.005.044-.012.066-.017.054-.012.11-.017.165-.027A10.063,10.063,0,0,0,20.7,20.121a6.638,6.638,0,0,1-1.688-.542Zm4.63-1.487a4.259,4.259,0,0,1,.419.119l.062.023q.2.071.4.158l.068.033q.189.09.369.194l.079.048q.171.1.332.224c.028.02.055.04.083.062a3.619,3.619,0,0,1,.3.254c.025.023.051.046.076.069.1.1.2.2.291.3l.036.04a6.638,6.638,0,0,1-1.688.542,10.063,10.063,0,0,0-1.065-2.114c.055.01.111.015.165.027Zm-1.072,6.205a11.365,11.365,0,0,0-1.352.079,6.593,6.593,0,0,1-.216-1.266h3.137a6.6,6.6,0,0,1-.218,1.266A11.344,11.344,0,0,0,22.609,24.257Zm1.1.85a9.633,9.633,0,0,1-1.1,2.057,9.559,9.559,0,0,1-1.1-2.058,10.3,10.3,0,0,1,2.205,0Zm-2.67-2.829a6.6,6.6,0,0,1,.218-1.266,11.441,11.441,0,0,0,2.7,0,6.591,6.591,0,0,1,.216,1.268ZM22.609,20.3a10.553,10.553,0,0,1-1.1-.059,9.633,9.633,0,0,1,1.1-2.057,9.559,9.559,0,0,1,1.1,2.058A10.475,10.475,0,0,1,22.609,20.3Zm2.358,1.979a7.383,7.383,0,0,0-.222-1.4,7.11,7.11,0,0,0,1.924-.656,4.709,4.709,0,0,1,.668,2.053Z" transform="translate(-17.069 -17.135)" fill="#1b1f48"/>
</svg>
