<svg xmlns="http://www.w3.org/2000/svg" width="11.135" height="11.011" viewBox="0 0 11.135 11.011">
  <path id="Path_1234" data-name="Path 1234" d="M112.655,111.633a.99.99,0,0,0-1.4,0l0,0-.975.975a.215.215,0,0,1-.276.024,11.238,11.238,0,0,1-2.625-2.577.212.212,0,0,1,.021-.276l1-1a.99.99,0,0,0,0-1.4l-1.7-1.7a1.014,1.014,0,0,0-1.4,0l-.539.539a3.028,3.028,0,0,0-.751,3.088,9.083,9.083,0,0,0,1.108,2.247,11.777,11.777,0,0,0,3.4,3.34,8.668,8.668,0,0,0,2.519,1.12,2.914,2.914,0,0,0,.7.085,3.064,3.064,0,0,0,2.159-.908l.463-.463a.99.99,0,0,0,0-1.4Zm1.275,2.674-.463.463a2.422,2.422,0,0,1-2.286.654,8.047,8.047,0,0,1-2.338-1.048,11.195,11.195,0,0,1-3.222-3.158,8.477,8.477,0,0,1-1.036-2.1,2.422,2.422,0,0,1,.606-2.474l.539-.539a.385.385,0,0,1,.544,0h0l1.7,1.7a.385.385,0,0,1,0,.544h0l-1,1a.815.815,0,0,0-.085,1.06,11.927,11.927,0,0,0,2.771,2.719.821.821,0,0,0,1.048-.091l.966-.981a.385.385,0,0,1,.544,0h0l1.7,1.708a.385.385,0,0,1,0,.544h0Z" transform="translate(-103.704 -105.214)" fill="#1b1f48" stroke="#1b1f48" stroke-width="0.25"/>
</svg>
