<svg xmlns="http://www.w3.org/2000/svg" width="30" height="30" viewBox="0 0 30 30">
  <g id="Group_754" data-name="Group 754" transform="translate(-180 -304.89)">
    <path id="Path_999" data-name="Path 999" d="M195,304.89a15,15,0,1,1-15,15,15.044,15.044,0,0,1,15-15Zm0,0" transform="translate(0)" fill="#dd4b39"/>
    <path id="Path_1000" data-name="Path 1000" d="M332.394,401.753V403.3h1.546v1.546h-1.546v1.546h-1.547v-1.546H329.3V403.3h1.546v-1.547Zm0,0" transform="translate(-129.756 -84.183)" fill="#fff"/>
    <path id="Path_1001" data-name="Path 1001" d="M226.05,385.049a5.524,5.524,0,0,1,.086-7.733,5.3,5.3,0,0,1,5.757-1.117l.773.43.859.6-1.375,1.375-.515-.344a3.281,3.281,0,0,0-4.038.516,3.607,3.607,0,0,0,0,4.983,3.322,3.322,0,0,0,4.811,0,2.741,2.741,0,0,0,.773-1.375v-.172h-3.093V380.5h4.9l.086.43v1.2a4.8,4.8,0,0,1-1.289,3.007,5.694,5.694,0,0,1-7.732-.086Zm0,0" transform="translate(-38.486 -61.29)" fill="#fff"/>
  </g>
</svg>
