<svg xmlns="http://www.w3.org/2000/svg" width="10.331" height="10.331" viewBox="0 0 10.331 10.331">
  <g id="Group_1060" data-name="Group 1060" transform="translate(0 0)">
    <path id="Path_1286" data-name="Path 1286" d="M96.753,23.465H93.787a.787.787,0,0,0-.787.787v2.966a.787.787,0,0,0,.787.787h2.966a.787.787,0,0,0,.787-.787V24.252a.787.787,0,0,0-.787-.787Zm0,0" transform="translate(-93 -23.465)" fill="#3d4596"/>
    <path id="Path_1287" data-name="Path 1287" d="M229.956,23.465H226.99a.787.787,0,0,0-.787.787v2.966a.787.787,0,0,0,.787.787h2.966a.787.787,0,0,0,.787-.787V24.252a.787.787,0,0,0-.787-.787Zm0,0" transform="translate(-220.411 -23.465)" fill="#3d4596"/>
    <path id="Path_1288" data-name="Path 1288" d="M96.753,156.672H93.787a.787.787,0,0,0-.787.786v2.966a.787.787,0,0,0,.787.787h2.966a.787.787,0,0,0,.787-.787v-2.966a.787.787,0,0,0-.787-.786Zm0,0" transform="translate(-93 -150.88)" fill="#3d4596"/>
    <path id="Path_1289" data-name="Path 1289" d="M229.956,156.672H226.99a.787.787,0,0,0-.787.787v2.966a.787.787,0,0,0,.787.787h2.966a.787.787,0,0,0,.787-.787v-2.966a.787.787,0,0,0-.787-.786Zm0,0" transform="translate(-220.411 -150.88)" fill="#3d4596"/>
  </g>
</svg>
