<svg xmlns="http://www.w3.org/2000/svg" width="20.995" height="13.33" viewBox="0 0 20.995 13.33">
  <path id="Path_1262" data-name="Path 1262" d="M21.657,101.466a2.4,2.4,0,1,0-2.75,0,4.153,4.153,0,0,0-1.417.831,5.374,5.374,0,0,0-1.944-1.059,3.037,3.037,0,1,0-3.14,0,5.419,5.419,0,0,0-1.923,1.047,4.187,4.187,0,0,0-1.4-.814,2.4,2.4,0,1,0-2.75,0A4.207,4.207,0,0,0,3.5,105.445v.274a.018.018,0,0,0,.017.017H8.6a5.587,5.587,0,0,0-.046.7v.282a2.209,2.209,0,0,0,2.21,2.21H17.2a2.209,2.209,0,0,0,2.21-2.21v-.282a5.587,5.587,0,0,0-.046-.7h5.114a.018.018,0,0,0,.017-.017v-.274A4.223,4.223,0,0,0,21.657,101.466ZM18.55,99.5a1.732,1.732,0,1,1,1.765,1.732h-.066A1.73,1.73,0,0,1,18.55,99.5ZM11.6,98.637A2.372,2.372,0,1,1,14.105,101h-.274A2.375,2.375,0,0,1,11.6,98.637ZM5.963,99.5a1.732,1.732,0,1,1,1.765,1.732H7.662A1.732,1.732,0,0,1,5.963,99.5Zm2.75,5.566H4.173a3.549,3.549,0,0,1,3.5-3.17h.05a3.512,3.512,0,0,1,2.264.843A5.454,5.454,0,0,0,8.713,105.067Zm10.024,1.653a1.548,1.548,0,0,1-1.545,1.545H10.753a1.548,1.548,0,0,1-1.545-1.545v-.282a4.772,4.772,0,0,1,4.623-4.765c.046,0,.1,0,.141,0s.1,0,.141,0a4.772,4.772,0,0,1,4.623,4.765Zm.494-1.653a5.44,5.44,0,0,0-1.259-2.31,3.529,3.529,0,0,1,2.285-.86h.05a3.549,3.549,0,0,1,3.5,3.17Z" transform="translate(-3.5 -95.6)" fill="#fff"/>
</svg>
