<svg xmlns="http://www.w3.org/2000/svg" width="24" height="26" viewBox="0 0 24 26">
  <g id="Group_1271" data-name="Group 1271" transform="translate(-326 -218.441)">
    <g id="Group_1270" data-name="Group 1270">
      <g id="Iconly_Bold_Bookmark" data-name="Iconly/Bold/Bookmark" transform="translate(326 220.441)">
        <g id="Bookmark" transform="translate(4 2)">
          <path id="Bookmark-2" data-name="Bookmark" d="M14.986,20a1.026,1.026,0,0,1-.515-.141L7.99,16.62,1.5,19.86a1.069,1.069,0,0,1-.491.13A1.016,1.016,0,0,1,0,18.97V3.79A3.316,3.316,0,0,1,1.437.875,6.154,6.154,0,0,1,4.9,0h6.17a6.181,6.181,0,0,1,3.47.875A3.362,3.362,0,0,1,16,3.79V18.97a1.022,1.022,0,0,1-.74.99A.933.933,0,0,1,14.986,20ZM4.22,6.04a.79.79,0,0,0,0,1.58h7.53a.79.79,0,0,0,0-1.58Z" transform="translate(0 0)" fill="#37ccf4"/>
        </g>
      </g>
      <rect id="Rectangle_1465" data-name="Rectangle 1465" width="16" height="12" transform="translate(330 218.441)" fill="#37ccf4"/>
    </g>
    <path id="Path_1262" data-name="Path 1262" d="M14.074,99.016a1.4,1.4,0,1,0-1.6,0,2.419,2.419,0,0,0-.825.484,3.13,3.13,0,0,0-1.132-.617,1.768,1.768,0,1,0-1.829,0,3.156,3.156,0,0,0-1.12.61,2.438,2.438,0,0,0-.815-.474,1.4,1.4,0,1,0-1.6,0,2.45,2.45,0,0,0-1.65,2.315v.16a.01.01,0,0,0,.01.01H6.468a3.254,3.254,0,0,0-.027.409v.165a1.286,1.286,0,0,0,1.287,1.287h3.75a1.286,1.286,0,0,0,1.287-1.287v-.165a3.254,3.254,0,0,0-.027-.409h2.978a.01.01,0,0,0,.01-.01v-.16A2.46,2.46,0,0,0,14.074,99.016Zm-1.81-1.144a1.009,1.009,0,1,1,1.028,1.009h-.039A1.007,1.007,0,0,1,12.265,97.872Zm-4.05-.5a1.381,1.381,0,1,1,1.461,1.379h-.16A1.383,1.383,0,0,1,8.215,97.368Zm-3.28.5A1.009,1.009,0,1,1,5.963,98.88H5.924A1.009,1.009,0,0,1,4.935,97.872Zm1.6,3.242H3.892a2.067,2.067,0,0,1,2.037-1.846h.029a2.046,2.046,0,0,1,1.318.491A3.176,3.176,0,0,0,6.536,101.113Zm5.838.963a.9.9,0,0,1-.9.9H7.724a.9.9,0,0,1-.9-.9v-.165a2.779,2.779,0,0,1,2.693-2.775c.027,0,.056,0,.082,0s.056,0,.082,0a2.779,2.779,0,0,1,2.693,2.775Zm.288-.963a3.168,3.168,0,0,0-.733-1.345,2.055,2.055,0,0,1,1.331-.5h.029a2.067,2.067,0,0,1,2.037,1.846Z" transform="translate(328.273 130.959)" fill="#fff" stroke="#fff" stroke-width="0.2"/>
  </g>
</svg>
