<svg xmlns="http://www.w3.org/2000/svg" width="11.682" height="11.685" viewBox="0 0 11.682 11.685">
  <g id="Group_912" data-name="Group 912" transform="translate(42.102 113.535)">
    <path id="Path_1236" data-name="Path 1236" d="M-30.449-110.1a4.267,4.267,0,0,0-.272-1.418,2.851,2.851,0,0,0-.676-1.036,2.875,2.875,0,0,0-1.034-.673,4.282,4.282,0,0,0-1.417-.272c-.626-.03-.824-.037-2.41-.037s-1.785.007-2.408.034a4.272,4.272,0,0,0-1.417.272,2.852,2.852,0,0,0-1.036.676,2.877,2.877,0,0,0-.673,1.034,4.283,4.283,0,0,0-.272,1.417c-.03.626-.037.824-.037,2.411s.007,1.785.034,2.408a4.27,4.27,0,0,0,.272,1.418,2.881,2.881,0,0,0,.676,1.036,2.877,2.877,0,0,0,1.034.673,4.28,4.28,0,0,0,1.418.272c.623.028.822.034,2.408.034s1.785-.007,2.408-.034a4.268,4.268,0,0,0,1.417-.272,2.989,2.989,0,0,0,1.71-1.71,4.281,4.281,0,0,0,.272-1.418c.027-.623.034-.822.034-2.408s0-1.785-.03-2.408Zm-1.052,4.771a3.2,3.2,0,0,1-.2,1.084,1.938,1.938,0,0,1-1.109,1.109,3.217,3.217,0,0,1-1.084.2c-.616.027-.8.034-2.36.034s-1.746-.007-2.36-.034a3.2,3.2,0,0,1-1.084-.2,1.8,1.8,0,0,1-.671-.436,1.817,1.817,0,0,1-.436-.671,3.217,3.217,0,0,1-.2-1.084c-.027-.616-.034-.8-.034-2.36s.007-1.746.034-2.36a3.2,3.2,0,0,1,.2-1.084,1.776,1.776,0,0,1,.438-.671,1.815,1.815,0,0,1,.671-.436,3.219,3.219,0,0,1,1.084-.2c.616-.027.8-.034,2.36-.034s1.746.007,2.36.034a3.205,3.205,0,0,1,1.084.2,1.8,1.8,0,0,1,.671.436,1.815,1.815,0,0,1,.436.671,3.217,3.217,0,0,1,.2,1.084c.027.616.034.8.034,2.36s-.007,1.742-.034,2.358Zm0,0" transform="translate(0 0)" fill="#3d4596"/>
    <path id="Path_1237" data-name="Path 1237" d="M85.182,10.746a3,3,0,1,0,3,3,3,3,0,0,0-3-3Zm0,4.949a1.947,1.947,0,1,1,1.947-1.947,1.947,1.947,0,0,1-1.947,1.947Zm0,0" transform="translate(-121.44 -121.439)" fill="#3d4596"/>
    <path id="Path_1238" data-name="Path 1238" d="M320.664-24.389a.7.7,0,0,1-.7.7.7.7,0,0,1-.7-.7.7.7,0,0,1,.7-.7.7.7,0,0,1,.7.7Zm0,0" transform="translate(-353.101 -86.423)" fill="#3d4596"/>
  </g>
</svg>
