<svg xmlns="http://www.w3.org/2000/svg" width="24" height="26" viewBox="0 0 24 26">
  <g id="Iconly_Bold_Bookmark" data-name="Iconly/Bold/Bookmark" transform="translate(0 2)">
    <g id="Bookmark" transform="translate(4 2)">
      <path id="Bookmark-2" data-name="Bookmark" d="M14.986,20a1.026,1.026,0,0,1-.515-.141L7.99,16.62,1.5,19.86a1.069,1.069,0,0,1-.491.13A1.016,1.016,0,0,1,0,18.97V3.79A3.316,3.316,0,0,1,1.437.875,6.154,6.154,0,0,1,4.9,0h6.17a6.181,6.181,0,0,1,3.47.875A3.362,3.362,0,0,1,16,3.79V18.97a1.022,1.022,0,0,1-.74.99A.933.933,0,0,1,14.986,20ZM4.22,6.04a.79.79,0,0,0,0,1.58h7.53a.79.79,0,0,0,0-1.58Z" transform="translate(0 0)" fill="#3bf2a3"/>
    </g>
  </g>
  <rect id="Rectangle_1504" data-name="Rectangle 1504" width="16" height="12" transform="translate(4)" fill="#3bf2a3"/>
  <g id="Iconly_Light_Bag" data-name="Iconly/Light/Bag" transform="translate(7.651 4.793)">
    <g id="Bag">
      <path id="Path_33955" d="M6.606,7.953H2.432C.9,7.953-.277,7.353.057,4.938L.446,1.666C.652.461,1.361,0,1.984,0H7.073c.632,0,1.3.5,1.538,1.666L9,4.938C9.284,7.08,8.139,7.953,6.606,7.953Z" transform="translate(0 2.459)" fill="none" stroke="#fff" stroke-linecap="round" stroke-linejoin="round" stroke-miterlimit="10" stroke-width="1"/>
      <path id="Path_33956" d="M4.33,2.34A2.256,2.256,0,0,0,2.169,0h0A2.078,2.078,0,0,0,.636.682,2.442,2.442,0,0,0,0,2.34H0" transform="translate(2.345 0)" fill="none" stroke="#fff" stroke-linecap="round" stroke-linejoin="round" stroke-miterlimit="10" stroke-width="1"/>
      <path id="Line_192" d="M.458.458H.435" transform="translate(5.54 4.322)" fill="none" stroke="#fff" stroke-linecap="round" stroke-linejoin="round" stroke-miterlimit="10" stroke-width="1"/>
      <path id="Line_193" d="M.458.458H.435" transform="translate(2.625 4.322)" fill="none" stroke="#fff" stroke-linecap="round" stroke-linejoin="round" stroke-miterlimit="10" stroke-width="1"/>
    </g>
  </g>
</svg>
