<svg id="Iconly_Light_Bag" data-name="Iconly/Light/Bag" xmlns="http://www.w3.org/2000/svg" width="16" height="16" viewBox="0 0 16 16">
  <g id="Bag" transform="translate(2.201 1.519)">
    <path id="Path_33955" d="M8.808,9.788H3.243C1.2,9.788-.369,9.05.076,6.078L.595,2.05C.869.568,1.815,0,2.645,0H9.431c.842,0,1.733.61,2.05,2.05L12,6.078C12.378,8.714,10.853,9.788,8.808,9.788Z" transform="translate(0 3.027)" fill="none" stroke="#fff" stroke-linecap="round" stroke-linejoin="round" stroke-miterlimit="10" stroke-width="1"/>
    <path id="Path_33956" d="M5.773,2.88A2.88,2.88,0,0,0,2.892,0h0A2.88,2.88,0,0,0,0,2.88H0" transform="translate(3.127 0)" fill="none" stroke="#fff" stroke-linecap="round" stroke-linejoin="round" stroke-miterlimit="10" stroke-width="1"/>
    <path id="Line_192" d="M.465.458H.435" transform="translate(7.532 5.425)" fill="none" stroke="#fff" stroke-linecap="round" stroke-linejoin="round" stroke-miterlimit="10" stroke-width="1"/>
    <path id="Line_193" d="M.465.458H.435" transform="translate(3.644 5.425)" fill="none" stroke="#fff" stroke-linecap="round" stroke-linejoin="round" stroke-miterlimit="10" stroke-width="1"/>
  </g>
</svg>
