<svg xmlns="http://www.w3.org/2000/svg" width="11.935" height="9.099" viewBox="0 0 11.935 9.099">
  <g id="Group_1061" data-name="Group 1061" transform="translate(0 0)">
    <path id="Path_1290" data-name="Path 1290" d="M31.438,95.5H20.5c-.275,0-.5-.306-.5-.682s.223-.682.5-.682h10.94c.274,0,.5.306.5.682s-.223.682-.5.682Zm0,0" transform="translate(-20 -90.264)" fill="#3d4596"/>
    <path id="Path_1291" data-name="Path 1291" d="M31.438,4.83H20.5c-.275,0-.5-.306-.5-.682s.223-.682.5-.682h10.94c.274,0,.5.306.5.682s-.223.682-.5.682Zm0,0" transform="translate(-20 -3.465)" fill="#3d4596"/>
    <path id="Path_1292" data-name="Path 1292" d="M31.438,186.162H20.5c-.275,0-.5-.306-.5-.682s.223-.682.5-.682h10.94c.274,0,.5.306.5.682s-.223.682-.5.682Zm0,0" transform="translate(-20 -177.063)" fill="#3d4596"/>
  </g>
</svg>
