<svg xmlns="http://www.w3.org/2000/svg" width="24" height="26" viewBox="0 0 24 26">
  <g id="Group_1273" data-name="Group 1273" transform="translate(-326 -288.441)">
    <g id="Group_1272" data-name="Group 1272">
      <g id="Iconly_Bold_Bookmark" data-name="Iconly/Bold/Bookmark" transform="translate(326 290.441)">
        <g id="Bookmark" transform="translate(4 2)">
          <path id="Bookmark-2" data-name="Bookmark" d="M14.986,20a1.026,1.026,0,0,1-.515-.141L7.99,16.62,1.5,19.86a1.069,1.069,0,0,1-.491.13A1.016,1.016,0,0,1,0,18.97V3.79A3.316,3.316,0,0,1,1.437.875,6.154,6.154,0,0,1,4.9,0h6.17a6.181,6.181,0,0,1,3.47.875A3.362,3.362,0,0,1,16,3.79V18.97a1.022,1.022,0,0,1-.74.99A.933.933,0,0,1,14.986,20ZM4.22,6.04a.79.79,0,0,0,0,1.58h7.53a.79.79,0,0,0,0-1.58Z" transform="translate(0 0)" fill="#94ef60"/>
        </g>
      </g>
      <rect id="Rectangle_1467" data-name="Rectangle 1467" width="16" height="12" transform="translate(330 288.441)" fill="#94ef60"/>
    </g>
    <g id="Iconly_Light_Document" data-name="Iconly/Light/Document" transform="translate(333.875 294.816)">
      <g id="Document">
        <path id="Stroke_1" data-name="Stroke 1" d="M3.61.5H0" transform="translate(2.373 6.237)" fill="none" stroke="#fff" stroke-linecap="round" stroke-linejoin="round" stroke-miterlimit="10" stroke-width="0.75"/>
        <path id="Stroke_2" data-name="Stroke 2" d="M3.61.5H0" transform="translate(2.373 4.144)" fill="none" stroke="#fff" stroke-linecap="round" stroke-linejoin="round" stroke-miterlimit="10" stroke-width="0.75"/>
        <path id="Stroke_3" data-name="Stroke 3" d="M1.378.5H0" transform="translate(2.373 2.055)" fill="none" stroke="#fff" stroke-linecap="round" stroke-linejoin="round" stroke-miterlimit="10" stroke-width="0.75"/>
        <path id="Stroke_4" data-name="Stroke 4" d="M6.079,0,2.235,0A2.125,2.125,0,0,0,0,2.3V6.9a2.127,2.127,0,0,0,2.253,2.3L6.1,9.2A2.126,2.126,0,0,0,8.333,6.9V2.3A2.128,2.128,0,0,0,6.079,0Z" fill="none" stroke="#fff" stroke-linecap="round" stroke-linejoin="round" stroke-miterlimit="10" stroke-width="0.75"/>
      </g>
    </g>
  </g>
</svg>
