<svg xmlns="http://www.w3.org/2000/svg" width="37.114" height="28.111" viewBox="0 0 37.114 28.111">
  <g id="Group_1362" data-name="Group 1362" transform="translate(1704.5 -2235.816)">
    <path id="Path_28" data-name="Path 28" d="M175.67,494.245" transform="translate(-1851.821 1767.853)" fill="#3d4596"/>
    <path id="Rectangle_3" data-name="Rectangle 3" d="M1.109,0H7.4a0,0,0,0,1,0,0V2.219a0,0,0,0,1,0,0H1.109A1.109,1.109,0,0,1,0,1.109v0A1.109,1.109,0,0,1,1.109,0Z" transform="translate(-1676.612 2242.851) rotate(-0.315)" fill="#3d4596"/>
    <path id="Path_29" data-name="Path 29" d="M184.237,461.288a.926.926,0,0,1-.85.99l-7.336.034a1.082,1.082,0,0,1-1.025-1.13h0a1.081,1.081,0,0,1,1.014-1.139l7.338-.033a.927.927,0,0,1,.858.983Z" transform="translate(-1851.635 1777.782)" fill="#3d4596"/>
    <path id="Path_30" data-name="Path 30" d="M180.693,476.182l-4.762.035a1.019,1.019,0,0,1-.9-1.105h0a1.019,1.019,0,0,1,.887-1.113l4.762-.035Z" transform="translate(-1851.637 1773.735)" fill="#3d4596"/>
    <g id="Group_6" data-name="Group 6" transform="translate(-1691.969 2238.101)">
      <path id="Path_31" data-name="Path 31" d="M177.253,461.549l.52-.669a1.065,1.065,0,0,0-.864-.435L172.487,472l-.729,2.312-14.085.063-1.061-1.5c-1.164,2.158-2.07,4.119-2.689,5.551l-.479,1.349a.884.884,0,0,0,.839,1.184l.822,0a3.2,3.2,0,1,0,4.748-.021l6.966-.032a3.195,3.195,0,1,0,4.749-.021l1,0a.887.887,0,0,0-.008-1.775l-17.018.077.975-2.752a1.063,1.063,0,0,0,.412.083l15.619-.07a1.063,1.063,0,0,0,1.011-.743l4.408-14.149C178.065,461.225,177.453,461.822,177.253,461.549ZM169.2,481.6a1.42,1.42,0,1,1-1.414,1.426A1.42,1.42,0,0,1,169.2,481.6Zm-11.716.053a1.42,1.42,0,1,1-1.414,1.426A1.422,1.422,0,0,1,157.48,481.656Z" transform="translate(-153.391 -460.446)" fill="#3d4596"/>
    </g>
    <rect id="Rectangle_4" data-name="Rectangle 4" width="0.831" height="14.91" transform="translate(-1669.234 2239.608) rotate(19.895)" fill="#3d4596"/>
    <circle id="Ellipse_4" data-name="Ellipse 4" cx="1.109" cy="1.109" r="1.109" transform="translate(-1679.857 2237.88)" fill="#94ef60"/>
    <circle id="Ellipse_5" data-name="Ellipse 5" cx="1.109" cy="1.109" r="1.109" transform="translate(-1679.857 2242.85)" fill="#3bf2a3"/>
    <circle id="Ellipse_6" data-name="Ellipse 6" cx="1.109" cy="1.109" r="1.109" transform="translate(-1679.857 2247.737)" fill="#37ccf4"/>
    <path id="Path_32" data-name="Path 32" d="M146.22,479.238a40.123,40.123,0,0,0-9.975-9.775l-.5-.315.363-.468a2.018,2.018,0,0,1,1.306-.766,2.669,2.669,0,0,1,.351-.035c2.456-.09,6.278,2.88,7.8,4.158,1.331-2.082,5.83-9.008,8.6-11.9,2.035-2.119,3.452-2.732,4.283-2.873a2.646,2.646,0,0,1,.344-.036,1.534,1.534,0,0,1,.668.1l.753.346-.62.545c-7.9,6.95-12.389,20.732-12.433,20.87l-.326,1.015Z" transform="translate(-1840.242 1778.589)" fill="#3bf2a3"/>
  </g>
</svg>
