<svg xmlns="http://www.w3.org/2000/svg" width="11.841" height="11.84" viewBox="0 0 11.841 11.84">
  <g id="Group_918" data-name="Group 918" transform="translate(44 113.535)">
    <path id="Path_1240" data-name="Path 1240" d="M-33.434-113.535h-4.494a.347.347,0,0,0-.245.1l-5.454,5.454a1.276,1.276,0,0,0,0,1.8l4.109,4.109a1.266,1.266,0,0,0,.9.372h0a1.266,1.266,0,0,0,.9-.372l5.454-5.454a.347.347,0,0,0,.1-.245v-4.494a1.276,1.276,0,0,0-1.275-1.274Zm.581,5.624-5.353,5.353a.576.576,0,0,1-.411.169.576.576,0,0,1-.411-.169l-4.109-4.109a.582.582,0,0,1,0-.821l5.353-5.353h4.35a.582.582,0,0,1,.581.581Zm0,0" transform="translate(0 0)" fill="#3809a3"/>
    <path id="Path_1241" data-name="Path 1241" d="M289.742-28.457a1.083,1.083,0,0,0-.771.319,1.083,1.083,0,0,0-.319.771,1.083,1.083,0,0,0,.319.771,1.083,1.083,0,0,0,.771.319,1.083,1.083,0,0,0,.771-.319,1.083,1.083,0,0,0,.319-.771,1.083,1.083,0,0,0-.319-.771,1.083,1.083,0,0,0-.771-.319Zm.28,1.37a.393.393,0,0,1-.28.116.393.393,0,0,1-.28-.116.393.393,0,0,1-.116-.28.393.393,0,0,1,.116-.28.393.393,0,0,1,.28-.116.394.394,0,0,1,.28.116.393.393,0,0,1,.116.28.394.394,0,0,1-.116.28Zm0,0" transform="translate(-324.959 -83.11)" fill="#3809a3"/>
  </g>
</svg>
