<svg xmlns="http://www.w3.org/2000/svg" width="199.566" height="28.685" viewBox="0 0 199.566 28.685">
  <g id="Group_5" data-name="Group 5" transform="translate(39.945 0.841)">
    <path id="Path_18" data-name="Path 18" d="M200.268,474.457c.349,1.823,1.626,2.591,3.606,2.591,1.855,0,2.71-.649,2.71-1.864,0-1.376-.928-1.9-4.233-2.686-6.174-1.5-7.4-3.748-7.4-6.565,0-3.511,2.58-6.453,8.4-6.453,6.055,0,8.528,3.072,8.821,6.372h-5.924c-.161-1.122-.737-2.265-2.912-2.265-1.4,0-2.267.529-2.267,1.662s.767,1.574,3.993,2.366c6.448,1.61,7.728,3.932,7.728,6.908,0,3.93-3.031,6.66-9.174,6.66-5.786,0-8.852-2.7-9.315-6.726Z" transform="translate(-194.302 -458.784)" fill="#3d4596"/>
    <path id="Path_19" data-name="Path 19" d="M229.9,458.46v7.749a5.437,5.437,0,0,1,4.5-2.051c3.284,0,5.233,2.068,5.233,6.015v10.3h-5.894v-9.588c0-1.594-.5-2.383-1.815-2.383-1.784,0-2.025,1.387-2.025,3.336v8.635h-5.924V458.46Z" transform="translate(-203.734 -458.46)" fill="#3d4596"/>
    <path id="Path_20" data-name="Path 20" d="M266.562,475.142c0,4.97-3.1,8.369-8.568,8.369-5.645,0-8.445-3.707-8.445-8.31,0-4.8,2.922-8.388,8.636-8.388C263.438,466.813,266.562,470.318,266.562,475.142Zm-10.954.03c0,3.033.9,4.364,2.477,4.364s2.407-1.351,2.407-4.312c0-3.283-.825-4.4-2.436-4.4C256.586,470.82,255.608,471.87,255.608,475.172Z" transform="translate(-211.864 -461.115)" fill="#3d4596"/>
    <path id="Path_21" data-name="Path 21" d="M282.272,482.009v6.949h-5.894V471.487c0-1.436,0-3.172-.03-4.288h5.761a14.03,14.03,0,0,1,.152,1.778,5,5,0,0,1,4.466-2.164c3.353,0,6.236,2.775,6.236,7.964,0,5.891-3.325,8.733-6.993,8.733A4.351,4.351,0,0,1,282.272,482.009Zm4.653-7c0-2.944-.891-4.027-2.409-4.027-1.86,0-2.437,1.275-2.437,4.249,0,2.749.578,4.177,2.309,4.177C286.137,479.411,286.925,478.071,286.925,475.013Z" transform="translate(-220.383 -461.115)" fill="#3d4596"/>
    <path id="Path_22" data-name="Path 22" d="M317.509,478.4a46.926,46.926,0,0,0,.192,4.725h-5.466a6.817,6.817,0,0,1-.245-1.471c-.758.99-1.93,1.857-4.493,1.857-3.573,0-5.5-2.244-5.5-5.078,0-3.743,3-5.361,7.866-5.361h1.955v-.881c0-1.02-.363-1.768-1.791-1.768-1.34,0-1.693.615-1.832,1.643h-5.468c.211-2.66,1.789-5.272,7.45-5.252,5.222.019,7.336,2.031,7.336,5.872Zm-5.7-2.344H310.5c-2.042,0-2.713.715-2.713,1.891a1.584,1.584,0,0,0,1.734,1.688c2.008,0,2.29-1.376,2.29-3.087Z" transform="translate(-228.535 -461.115)" fill="#3d4596"/>
    <path id="Path_23" data-name="Path 23" d="M328.019,471.328c0-1.38-.011-2.868-.041-4.13h5.782a15.26,15.26,0,0,1,.183,1.755,5.12,5.12,0,0,1,4.528-2.14c3.189,0,5.2,2.153,5.2,6.051v10.261h-5.913v-9.574c0-1.534-.441-2.4-1.806-2.4-1.237,0-2.014.653-2.014,2.887v9.084h-5.924Z" transform="translate(-236.795 -461.115)" fill="#3d4596"/>
    <path id="Path_24" data-name="Path 24" d="M354.642,458.46h5.924v4.128h-5.924Zm0,6.083h5.924V480.47h-5.924Z" transform="translate(-245.271 -458.46)" fill="#3d4596"/>
    <path id="Path_25" data-name="Path 25" d="M365.516,479.449c.661-.7,6.2-6.945,7.15-7.96h-6.807v-4.112h13.4v4.03c-.684.8-6.284,7.145-6.871,7.784h7.533l-.707,4.113h-13.7Z" transform="translate(-248.728 -461.295)" fill="#3d4596"/>
    <path id="Path_26" data-name="Path 26" d="M392.818,476.333c0,1.6.615,3.213,2.361,3.213a1.872,1.872,0,0,0,2.105-1.433H403.1c-.579,2.117-2.385,5.4-8.023,5.4-6.014,0-8.226-4.05-8.226-8.213,0-4.8,2.54-8.485,8.335-8.485,6.171,0,8.055,4.177,8.055,8.152a11.521,11.521,0,0,1-.061,1.368Zm4.491-3.091c-.02-1.489-.446-2.747-2.142-2.747-1.582,0-2.192,1.166-2.29,2.747Z" transform="translate(-255.51 -461.115)" fill="#3d4596"/>
    <path id="Path_27" data-name="Path 27" d="M412.474,471.77c0-1.523-.01-3.154-.04-4.572h5.79c.071.495.143,1.889.143,2.588a4.957,4.957,0,0,1,4.9-2.973v5.413c-3.352-.143-4.863.621-4.863,4.355v6.544h-5.925Z" transform="translate(-263.642 -461.115)" fill="#3d4596"/>
  </g>
  <path id="Path_28" data-name="Path 28" d="M175.67,494.245" transform="translate(-148.434 -468.994)" fill="#3d4596"/>
  <path id="Rectangle_3" data-name="Rectangle 3" d="M1.066,0H7.111a0,0,0,0,1,0,0V2.132a0,0,0,0,1,0,0H1.066A1.066,1.066,0,0,1,0,1.066v0A1.066,1.066,0,0,1,1.066,0Z" transform="translate(26.793 6.759) rotate(-0.315)" fill="#3d4596"/>
  <path id="Path_29" data-name="Path 29" d="M183.875,461.238a.89.89,0,0,1-.816.951l-7.048.033a1.039,1.039,0,0,1-.984-1.085h0a1.039,1.039,0,0,1,.974-1.094l7.05-.032a.891.891,0,0,1,.824.944Z" transform="translate(-148.229 -458.112)" fill="#3d4596"/>
  <path id="Path_30" data-name="Path 30" d="M180.471,476.095l-4.575.033a.979.979,0,0,1-.862-1.062h0a.979.979,0,0,1,.853-1.07l4.575-.033Z" transform="translate(-148.232 -462.547)" fill="#3d4596"/>
  <g id="Group_6" data-name="Group 6" transform="translate(12.039 2.196)">
    <path id="Path_31" data-name="Path 31" d="M176.316,461.506l.5-.642a1.023,1.023,0,0,0-.83-.418l-4.248,11.1-.7,2.222-13.533.061-1.02-1.443c-1.118,2.074-1.989,3.957-2.584,5.334l-.46,1.3a.85.85,0,0,0,.806,1.137l.789,0a3.07,3.07,0,1,0,4.561-.02l6.693-.031a3.07,3.07,0,1,0,4.563-.02l.958,0a.853.853,0,0,0-.007-1.705l-16.35.074.937-2.644a1.02,1.02,0,0,0,.4.08l15.006-.068a1.021,1.021,0,0,0,.971-.714L177,461.506C177.1,461.194,176.509,461.768,176.316,461.506Zm-7.741,19.267a1.364,1.364,0,1,1-1.358,1.37A1.364,1.364,0,0,1,168.576,480.773Zm-11.256.05a1.364,1.364,0,1,1-1.358,1.37A1.366,1.366,0,0,1,157.319,480.824Z" transform="translate(-153.391 -460.446)" fill="#3d4596"/>
  </g>
  <rect id="Rectangle_4" data-name="Rectangle 4" width="0.798" height="14.325" transform="translate(33.882 3.644) rotate(19.895)" fill="#3d4596"/>
  <circle id="Ellipse_4" data-name="Ellipse 4" cx="1.066" cy="1.066" r="1.066" transform="translate(23.675 1.983)" fill="#94ef60"/>
  <circle id="Ellipse_5" data-name="Ellipse 5" cx="1.066" cy="1.066" r="1.066" transform="translate(23.675 6.758)" fill="#3bf2a3"/>
  <circle id="Ellipse_6" data-name="Ellipse 6" cx="1.066" cy="1.066" r="1.066" transform="translate(23.675 11.453)" fill="#37ccf4"/>
  <path id="Path_32" data-name="Path 32" d="M145.809,478.374a38.548,38.548,0,0,0-9.584-9.391l-.483-.3.349-.45a1.939,1.939,0,0,1,1.255-.736,2.558,2.558,0,0,1,.338-.034c2.359-.087,6.032,2.767,7.5,3.994,1.279-2,5.6-8.654,8.267-11.432,1.955-2.035,3.316-2.625,4.115-2.76a2.548,2.548,0,0,1,.33-.034,1.474,1.474,0,0,1,.642.1l.724.332-.6.524c-7.591,6.677-11.9,19.918-11.945,20.051l-.313.975Z" transform="translate(-135.742 -457.227)" fill="#3bf2a3"/>
</svg>
