<svg xmlns="http://www.w3.org/2000/svg" width="11.974" height="11.974" viewBox="0 0 11.974 11.974">
  <g id="Group_1085" data-name="Group 1085" transform="translate(-285.541 95.84) rotate(-45)">
    <g id="Group_25" data-name="Group 25" transform="translate(261.908 141.908)">
      <path id="Path_80" data-name="Path 80" d="M-4.289-78.057h-2.57a.151.151,0,0,1-.151-.151v-2.57a.756.756,0,0,0-.756-.756.756.756,0,0,0-.756.756v2.57a.151.151,0,0,1-.151.151h-2.57A.756.756,0,0,0-12-77.3a.756.756,0,0,0,.756.756h2.57a.151.151,0,0,1,.151.151v2.57a.756.756,0,0,0,.756.756.756.756,0,0,0,.756-.756v-2.57a.151.151,0,0,1,.151-.151h2.57a.756.756,0,0,0,.756-.756.756.756,0,0,0-.756-.756Zm0,0" transform="translate(15.536 77.999)" fill="rgba(61,69,150,0.3)"/>
    </g>
  </g>
</svg>
